<mxfile host="app.diagrams.net" agent="Mozilla/5.0 (Macintosh; Intel Mac OS X 10_15_7) AppleWebKit/605.1.15 (KHTML, like Gecko) Version/16.6 Safari/605.1.15" version="26.0.6">
  <diagram name="Page-1" id="-gp98-XVd6rGAQRWTMxh">
    <mxGraphModel dx="2044" dy="797" grid="1" gridSize="10" guides="1" tooltips="1" connect="1" arrows="1" fold="1" page="1" pageScale="1" pageWidth="850" pageHeight="1100" math="0" shadow="0">
      <root>
        <mxCell id="0" />
        <mxCell id="1" parent="0" />
        <mxCell id="0vK-21xWkOVuoEFsQb45-15" value="AWS Cloud" style="points=[[0,0],[0.25,0],[0.5,0],[0.75,0],[1,0],[1,0.25],[1,0.5],[1,0.75],[1,1],[0.75,1],[0.5,1],[0.25,1],[0,1],[0,0.75],[0,0.5],[0,0.25]];outlineConnect=0;gradientColor=none;html=1;whiteSpace=wrap;fontSize=12;fontStyle=0;container=1;pointerEvents=0;collapsible=0;recursiveResize=0;shape=mxgraph.aws4.group;grIcon=mxgraph.aws4.group_aws_cloud_alt;strokeColor=#232F3E;fillColor=none;verticalAlign=top;align=left;spacingLeft=30;fontColor=#232F3E;dashed=0;" vertex="1" parent="1">
          <mxGeometry x="280" y="90" width="540" height="550" as="geometry" />
        </mxCell>
        <mxCell id="0vK-21xWkOVuoEFsQb45-23" style="edgeStyle=orthogonalEdgeStyle;rounded=0;orthogonalLoop=1;jettySize=auto;html=1;exitX=1;exitY=0.5;exitDx=0;exitDy=0;exitPerimeter=0;" edge="1" parent="0vK-21xWkOVuoEFsQb45-15" source="0vK-21xWkOVuoEFsQb45-16" target="0vK-21xWkOVuoEFsQb45-18">
          <mxGeometry relative="1" as="geometry" />
        </mxCell>
        <mxCell id="0vK-21xWkOVuoEFsQb45-39" style="edgeStyle=orthogonalEdgeStyle;rounded=0;orthogonalLoop=1;jettySize=auto;html=1;exitX=0;exitY=0.75;exitDx=0;exitDy=0;exitPerimeter=0;" edge="1" parent="0vK-21xWkOVuoEFsQb45-15" source="0vK-21xWkOVuoEFsQb45-16">
          <mxGeometry relative="1" as="geometry">
            <mxPoint x="-240" y="295" as="targetPoint" />
          </mxGeometry>
        </mxCell>
        <mxCell id="0vK-21xWkOVuoEFsQb45-16" value="" style="sketch=0;points=[[0,0,0],[0.25,0,0],[0.5,0,0],[0.75,0,0],[1,0,0],[0,1,0],[0.25,1,0],[0.5,1,0],[0.75,1,0],[1,1,0],[0,0.25,0],[0,0.5,0],[0,0.75,0],[1,0.25,0],[1,0.5,0],[1,0.75,0]];outlineConnect=0;fontColor=#232F3E;fillColor=#01A88D;strokeColor=#ffffff;dashed=0;verticalLabelPosition=bottom;verticalAlign=top;align=center;html=1;fontSize=12;fontStyle=0;aspect=fixed;shape=mxgraph.aws4.resourceIcon;resIcon=mxgraph.aws4.sagemaker;" vertex="1" parent="0vK-21xWkOVuoEFsQb45-15">
          <mxGeometry x="40" y="236" width="78" height="78" as="geometry" />
        </mxCell>
        <mxCell id="0vK-21xWkOVuoEFsQb45-17" value="" style="sketch=0;points=[[0,0,0],[0.25,0,0],[0.5,0,0],[0.75,0,0],[1,0,0],[0,1,0],[0.25,1,0],[0.5,1,0],[0.75,1,0],[1,1,0],[0,0.25,0],[0,0.5,0],[0,0.75,0],[1,0.25,0],[1,0.5,0],[1,0.75,0]];outlineConnect=0;fontColor=#232F3E;fillColor=#7AA116;strokeColor=#ffffff;dashed=0;verticalLabelPosition=bottom;verticalAlign=top;align=center;html=1;fontSize=12;fontStyle=0;aspect=fixed;shape=mxgraph.aws4.resourceIcon;resIcon=mxgraph.aws4.s3;" vertex="1" parent="0vK-21xWkOVuoEFsQb45-15">
          <mxGeometry x="310" y="130" width="78" height="78" as="geometry" />
        </mxCell>
        <mxCell id="0vK-21xWkOVuoEFsQb45-18" value="" style="sketch=0;points=[[0,0,0],[0.25,0,0],[0.5,0,0],[0.75,0,0],[1,0,0],[0,1,0],[0.25,1,0],[0.5,1,0],[0.75,1,0],[1,1,0],[0,0.25,0],[0,0.5,0],[0,0.75,0],[1,0.25,0],[1,0.5,0],[1,0.75,0]];outlineConnect=0;fontColor=#232F3E;fillColor=#ED7100;strokeColor=#ffffff;dashed=0;verticalLabelPosition=bottom;verticalAlign=top;align=center;html=1;fontSize=12;fontStyle=0;aspect=fixed;shape=mxgraph.aws4.resourceIcon;resIcon=mxgraph.aws4.ec2;" vertex="1" parent="0vK-21xWkOVuoEFsQb45-15">
          <mxGeometry x="430" y="236" width="78" height="78" as="geometry" />
        </mxCell>
        <mxCell id="0vK-21xWkOVuoEFsQb45-32" style="edgeStyle=orthogonalEdgeStyle;rounded=0;orthogonalLoop=1;jettySize=auto;html=1;exitX=0;exitY=0.5;exitDx=0;exitDy=0;exitPerimeter=0;" edge="1" parent="0vK-21xWkOVuoEFsQb45-15" source="0vK-21xWkOVuoEFsQb45-19" target="0vK-21xWkOVuoEFsQb45-16">
          <mxGeometry relative="1" as="geometry" />
        </mxCell>
        <mxCell id="0vK-21xWkOVuoEFsQb45-19" value="" style="sketch=0;points=[[0,0,0],[0.25,0,0],[0.5,0,0],[0.75,0,0],[1,0,0],[0,1,0],[0.25,1,0],[0.5,1,0],[0.75,1,0],[1,1,0],[0,0.25,0],[0,0.5,0],[0,0.75,0],[1,0.25,0],[1,0.5,0],[1,0.75,0]];outlineConnect=0;fontColor=#232F3E;fillColor=#ED7100;strokeColor=#ffffff;dashed=0;verticalLabelPosition=bottom;verticalAlign=top;align=center;html=1;fontSize=12;fontStyle=0;aspect=fixed;shape=mxgraph.aws4.resourceIcon;resIcon=mxgraph.aws4.ec2;" vertex="1" parent="0vK-21xWkOVuoEFsQb45-15">
          <mxGeometry x="118" y="30" width="78" height="78" as="geometry" />
        </mxCell>
        <mxCell id="0vK-21xWkOVuoEFsQb45-21" value="" style="outlineConnect=0;dashed=0;verticalLabelPosition=bottom;verticalAlign=top;align=center;html=1;shape=mxgraph.aws3.cli;fillColor=#444444;gradientColor=none;" vertex="1" parent="0vK-21xWkOVuoEFsQb45-15">
          <mxGeometry x="121" y="400" width="72" height="82.5" as="geometry" />
        </mxCell>
        <mxCell id="0vK-21xWkOVuoEFsQb45-25" style="edgeStyle=orthogonalEdgeStyle;rounded=0;orthogonalLoop=1;jettySize=auto;html=1;exitX=1;exitY=1;exitDx=0;exitDy=0;exitPerimeter=0;entryX=0.57;entryY=0;entryDx=0;entryDy=0;entryPerimeter=0;" edge="1" parent="0vK-21xWkOVuoEFsQb45-15" source="0vK-21xWkOVuoEFsQb45-16" target="0vK-21xWkOVuoEFsQb45-21">
          <mxGeometry relative="1" as="geometry" />
        </mxCell>
        <mxCell id="0vK-21xWkOVuoEFsQb45-28" style="edgeStyle=orthogonalEdgeStyle;rounded=0;orthogonalLoop=1;jettySize=auto;html=1;exitX=0.145;exitY=0.21;exitDx=0;exitDy=0;exitPerimeter=0;entryX=0.75;entryY=1;entryDx=0;entryDy=0;entryPerimeter=0;" edge="1" parent="0vK-21xWkOVuoEFsQb45-15" source="0vK-21xWkOVuoEFsQb45-21" target="0vK-21xWkOVuoEFsQb45-16">
          <mxGeometry relative="1" as="geometry" />
        </mxCell>
        <mxCell id="0vK-21xWkOVuoEFsQb45-29" style="edgeStyle=orthogonalEdgeStyle;rounded=0;orthogonalLoop=1;jettySize=auto;html=1;exitX=1;exitY=0;exitDx=0;exitDy=0;exitPerimeter=0;entryX=0;entryY=0.5;entryDx=0;entryDy=0;entryPerimeter=0;" edge="1" parent="0vK-21xWkOVuoEFsQb45-15" source="0vK-21xWkOVuoEFsQb45-16" target="0vK-21xWkOVuoEFsQb45-17">
          <mxGeometry relative="1" as="geometry" />
        </mxCell>
        <mxCell id="0vK-21xWkOVuoEFsQb45-31" style="edgeStyle=orthogonalEdgeStyle;rounded=0;orthogonalLoop=1;jettySize=auto;html=1;exitX=0.25;exitY=0;exitDx=0;exitDy=0;exitPerimeter=0;entryX=0;entryY=0.25;entryDx=0;entryDy=0;entryPerimeter=0;" edge="1" parent="0vK-21xWkOVuoEFsQb45-15" source="0vK-21xWkOVuoEFsQb45-16" target="0vK-21xWkOVuoEFsQb45-19">
          <mxGeometry relative="1" as="geometry" />
        </mxCell>
        <mxCell id="0vK-21xWkOVuoEFsQb45-37" style="edgeStyle=orthogonalEdgeStyle;rounded=0;orthogonalLoop=1;jettySize=auto;html=1;entryX=0;entryY=0.5;entryDx=0;entryDy=0;entryPerimeter=0;" edge="1" parent="1" source="0vK-21xWkOVuoEFsQb45-33" target="0vK-21xWkOVuoEFsQb45-16">
          <mxGeometry relative="1" as="geometry" />
        </mxCell>
        <mxCell id="0vK-21xWkOVuoEFsQb45-33" value="" style="strokeWidth=1;shadow=0;dashed=0;align=center;html=1;shape=mxgraph.mockup.containers.browserWindow;rSize=0;strokeColor=#666666;strokeColor2=#008cff;strokeColor3=#c4c4c4;mainText=,;recursiveResize=0;" vertex="1" parent="1">
          <mxGeometry x="-220" y="315" width="80" height="100" as="geometry" />
        </mxCell>
        <mxCell id="0vK-21xWkOVuoEFsQb45-34" value="Page 1" style="strokeWidth=1;shadow=0;dashed=0;align=center;html=1;shape=mxgraph.mockup.containers.anchor;fontSize=17;fontColor=#666666;align=left;whiteSpace=wrap;" vertex="1" parent="0vK-21xWkOVuoEFsQb45-33">
          <mxGeometry x="60" y="12" width="110" height="26" as="geometry" />
        </mxCell>
      </root>
    </mxGraphModel>
  </diagram>
</mxfile>
